# xmcd
#
# Track frame offsets: 
#        150
#        10150
#        23953
#        35256
#        45322
#        56549
#        67342
#        79451
#        89519
#        100960
#        113370
#        124387
#        134758
#        144809
#        155172
#        165591
#        175911
#        187769
#        200022
#        209110
#        221607
#        234467
#        246462
#        257152
#        266576
#        278842
#
# Disc length: 3885 seconds
#
# Revision: 7
# Processed by: cddbd v1.5.2PL0 Copyright (c) Steve Scherf et al.
# Submitted via: ExactAudioCopyFreeDBPlugin 1.0
#
DISCID=870f2b1a
DTITLE=Various Artist - You Heard It Here First!:  The Original Versi
DTITLE=ons Of These Famous Songs
DYEAR=2008
DGENRE=Rhythm and Blues
TTITLE0=Gloria Jones - Tainted Love
TTITLE1=Mark James - Suspicious Minds
TTITLE2=The Wild Ones - Wild Thing
TTITLE3=The Crickets - I Fought the Law
TTITLE4=Howlin' Wolf - The Red Rooster
TTITLE5=The Raindrops - Hanky Panky
TTITLE6=Bessie Banks - Go Now
TTITLE7=Priscilla Bowman and The Spaniels - A Rockin' Good Way
TTITLE8=Sammy Ambrose - This Diamond Ring
TTITLE9=John D. Loudermilk - Tobacco Road
TTITLE10=Yvonne Fair - I Found You
TTITLE11=Eddie Riff - Ain't That Loving You Baby
TTITLE12=Richard Berry - Louie Louie (with The Pharaohs)
TTITLE13=Barbie Gaye - My Boy Lollipop
TTITLE14=The Little Darlings - Little Bit o' Soul
TTITLE15=Johnny Darrell - Ruby, Don't Take Your Love to Town
TTITLE16=Hoagy Lands - Baby Let Me Hold Your Hand
TTITLE17=Muddy Waters - You Need Love
TTITLE18=Diane and Annita - A Groovy Kind of Love
TTITLE19=Ian and Sylvia - You Were on My Mind
TTITLE20=Tommy Hunt - I Just Don't Know What to Do with Myself
TTITLE21=The Kingston Trio - Let's Get Together (live)
TTITLE22=Joe Jones - California Sun
TTITLE23=Carson and Gaile - Something Stupid
TTITLE24=The Leaves - Hey Joe, Where You Gonna Go
TTITLE25=Sunny Dae and The Knights - Rock Around the Clock
EXTD=YEAR: 1965
EXTT0=
EXTT1=
EXTT2=
EXTT3=
EXTT4=
EXTT5=
EXTT6=
EXTT7=
EXTT8=
EXTT9=
EXTT10=
EXTT11=
EXTT12=
EXTT13=
EXTT14=
EXTT15=
EXTT16=
EXTT17=
EXTT18=
EXTT19=
EXTT20=
EXTT21=
EXTT22=
EXTT23=
EXTT24=
EXTT25=
PLAYORDER=
